<svg xmlns="http://www.w3.org/2000/svg" width="30" height="30" viewBox="0 0 30 30"><g fill="#fff"><path d="M17.114 17.174c-.189 0-.378.052-.563.155-.098.057-.191.125-.283.207v-2.245c0-.068-.055-.123-.123-.123h-1.099c-.068 0-.124.055-.124.123v7.935c0 .068.056.124.124.124h1.099c.068 0 .123-.056.123-.124v-.141c.092.081.188.146.286.197.187.095.396.142.626.142.36 0 .641-.128.836-.379.187-.24.282-.588.282-1.031v-3.248c0-.501-.1-.894-.296-1.165-.205-.285-.504-.427-.888-.427zm-.182 4.681c0 .195-.039.284-.072.327-.014.018-.057.074-.195.074l-.206-.049-.19-.146v-3.548l.154-.117c.18-.091.337-.049.417.06.061.077.093.208.093.376v3.023zM13.985 17.249h-1.09c-.069 0-.124.056-.124.124v4.399c-.083.1-.178.186-.283.256-.129.089-.202.103-.233.103l-.122-.041c-.016-.023-.044-.083-.044-.231v-4.485c0-.068-.055-.124-.123-.124h-1.09c-.069 0-.124.056-.124.124v4.892c0 .373.073.661.215.858.151.206.376.312.667.312.23 0 .457-.067.694-.203.151-.086.296-.197.441-.338v.332c0 .068.055.124.124.124h1.09c.068 0 .123-.056.123-.124v-5.853c.001-.069-.053-.125-.121-.125zM11.015 16.441v-1.15c0-.068-.055-.123-.123-.123h-3.763c-.069 0-.124.055-.124.123v1.15c0 .067.055.123.124.123h1.144v6.661c0 .068.056.124.124.124h1.226c.067 0 .124-.056.124-.124v-6.661h1.145c.067 0 .123-.055.123-.123zM20.648 17.102c-.521 0-.952.174-1.282.518-.328.342-.494.787-.494 1.327v2.626c0 .592.15 1.066.449 1.41.303.35.723.526 1.244.526.578 0 1.021-.168 1.313-.497.293-.324.442-.81.442-1.439v-.439c0-.068-.056-.124-.123-.124h-1.12c-.069 0-.124.056-.124.124v.408c0 .427-.06.562-.083.596-.049.065-.143.1-.28.1-.171 0-.229-.067-.262-.12-.04-.065-.088-.218-.088-.575v-.98h1.957c.067 0 .123-.055.123-.123v-1.491c0-.585-.146-1.043-.435-1.361-.287-.324-.704-.486-1.237-.486zm.306 2.301h-.713v-.469c0-.272.047-.398.085-.453.055-.073.144-.107.274-.107.126 0 .212.033.262.104.042.06.092.187.092.456v.469zM24.375 0h-18.75c-3.108 0-5.625 2.517-5.625 5.625v18.75c0 3.107 2.517 5.625 5.625 5.625h18.75c3.107 0 5.625-2.518 5.625-5.625v-18.75c0-3.108-2.518-5.625-5.625-5.625zm-7.016 6.285h1.089v4.489c0 .136.022.238.069.3.044.061.12.094.22.094.08 0 .183-.041.304-.124.124-.08.235-.187.337-.314v-4.445h1.088v5.854h-1.088v-.646c-.201.239-.409.42-.627.544-.216.123-.427.187-.63.187-.251 0-.441-.088-.57-.261-.128-.175-.191-.435-.191-.786v-4.892zm-2.463-.148c.452 0 .82.141 1.106.426.288.282.433.649.433 1.093v3.024c0 .501-.141.895-.423 1.181-.282.284-.67.427-1.165.427-.478 0-.857-.148-1.145-.443-.285-.293-.427-.689-.427-1.188v-3.033c0-.453.146-.816.439-1.083.296-.269.687-.404 1.182-.404zm-4.441-1.934l.795 3.173h.077l.758-3.173h1.246l-1.425 4.642v3.294h-1.226v-3.144l-1.459-4.792h1.234zm13.105 18.528c0 1.415-1.16 2.563-2.589 2.563-2.042.083-4.13.121-6.262.115-2.13.006-4.22-.032-6.261-.115-1.428 0-2.587-1.148-2.587-2.563-.086-1.12-.125-2.24-.123-3.359-.002-1.121.036-2.241.122-3.359 0-1.414 1.161-2.561 2.588-2.561 2.042-.085 4.131-.123 6.261-.121 2.132-.002 4.22.035 6.262.121 1.429 0 2.589 1.147 2.589 2.561.086 1.118.126 2.238.121 3.359.005 1.119-.035 2.239-.121 3.359zM14.845 11.273c.148 0 .264-.045.352-.136.087-.088.131-.21.131-.37v-3.188c0-.126-.046-.231-.135-.31-.088-.078-.204-.118-.348-.118-.133 0-.242.041-.325.118-.082.079-.125.184-.125.31v3.188c0 .161.039.286.119.374.076.088.186.132.331.132z"/></g></svg>