<svg xmlns="http://www.w3.org/2000/svg" width="30" height="30" viewBox="0 0 30 30"><path fill="none" d="M0 0h30v30h-30z"/><path fill="#fff" d="M23.077 8.077c-.636 0-1.154-.519-1.154-1.154v-2.308c0-.635.519-1.154 1.154-1.154h2.308c.636 0 1.153.519 1.153 1.154v2.308c0 .636-.518 1.154-1.153 1.154h-2.308zM15 10.601c-.837 0-1.61.246-2.276.65.208-.064.423-.107.651-.107 1.233 0 2.231.999 2.231 2.231 0 1.23-.998 2.23-2.231 2.23-1.232 0-2.23-1-2.23-2.23 0-.229.044-.445.109-.652-.407.666-.652 1.44-.652 2.277 0 2.432 1.967 4.399 4.399 4.399 2.43 0 4.399-1.968 4.399-4.399s-1.97-4.399-4.4-4.399zM15 8.077c3.822 0 6.923 3.099 6.923 6.923s-3.101 6.923-6.923 6.923c-3.823 0-6.923-3.099-6.923-6.923s3.1-6.923 6.923-6.923m0-2.308c-5.09 0-9.231 4.141-9.231 9.231s4.141 9.23 9.231 9.23 9.23-4.141 9.23-9.23-4.14-9.231-9.23-9.231zM24.375 0h-18.75c-3.108 0-5.625 2.517-5.625 5.625v18.75c0 3.107 2.517 5.625 5.625 5.625h18.75c3.107 0 5.625-2.518 5.625-5.625v-18.75c0-3.108-2.518-5.625-5.625-5.625zm3.317 10.385h-7.543c1.1 1.226 1.773 2.839 1.773 4.615 0 3.824-3.101 6.923-6.923 6.923-3.823 0-6.923-3.099-6.923-6.923 0-1.776.674-3.39 1.773-4.615h-7.541v-4.76c0-1.829 1.488-3.317 3.317-3.317h18.75c1.83 0 3.317 1.489 3.317 3.317v4.76z"/></svg>