<svg xmlns="http://www.w3.org/2000/svg" width="30" height="30" viewBox="0 0 30 30"><g fill="#fff"><path d="M16.2 13.521v-.042l-.029.042h.029zM24.375 0h-18.75c-3.108 0-5.625 2.517-5.625 5.625v18.75c0 3.107 2.517 5.625 5.625 5.625h18.75c3.107 0 5.625-2.518 5.625-5.625v-18.75c0-3.108-2.518-5.625-5.625-5.625zm-15.099 25.465h-4.661l-.027-13.954h4.661l.027 13.954zm-2.447-15.78h-.03c-1.521 0-2.505-1.048-2.505-2.356 0-1.337 1.014-2.355 2.563-2.355 1.55 0 2.505 1.018 2.534 2.355.001 1.308-.983 2.356-2.562 2.356zm18.604 15.781h-4.703v-7.582c0-1.832-.485-3.082-2.125-3.082-1.25 0-1.928.844-2.256 1.657-.119.292-.149.697-.149 1.104v7.902h-4.725l-.027-13.955h4.725l.027 1.968c.602-.93 1.607-2.254 4.016-2.254 2.981 0 5.217 1.948 5.217 6.135v8.107z"/></g></svg>